<?xml version="1.0" encoding="UTF-8"?>
<svg xmlns="http://www.w3.org/2000/svg" xmlns:xlink="http://www.w3.org/1999/xlink" width="124px" height="34px" viewBox="0 0 125 34" version="1.1">
<g id="surface1">
<path style=" stroke:none;fill-rule:nonzero;fill:rgb(84.705882%,12.156863%,14.901961%);fill-opacity:1;" d="M 17.1875 31.777344 C 15.308594 32.109375 13.394531 32.210938 11.414062 32.476562 L 5.378906 14.695312 L 5.378906 33.238281 C 3.496094 33.4375 1.78125 33.703125 0 33.96875 L 0 0 L 5.015625 0 L 11.875 19.273438 L 11.875 0 L 17.1875 0 Z M 27.578125 12.441406 C 29.625 12.441406 32.757812 12.339844 34.640625 12.339844 L 34.640625 17.648438 C 32.296875 17.648438 29.558594 17.648438 27.578125 17.746094 L 27.578125 25.640625 C 30.679688 25.441406 33.78125 25.175781 36.914062 25.078125 L 36.914062 30.1875 L 22.300781 31.347656 L 22.300781 0 L 36.914062 0 L 36.914062 5.308594 L 27.578125 5.308594 Z M 56.546875 5.308594 L 51.070312 5.308594 L 51.070312 29.722656 C 49.289062 29.722656 47.503906 29.722656 45.789062 29.789062 L 45.789062 5.308594 L 40.3125 5.308594 L 40.3125 0 L 56.546875 0 Z M 65.121094 12.074219 L 72.347656 12.074219 L 72.347656 17.382812 L 65.121094 17.382812 L 65.121094 29.425781 L 59.941406 29.425781 L 59.941406 0 L 74.691406 0 L 74.691406 5.308594 L 65.121094 5.308594 Z M 83.265625 24.78125 C 86.269531 24.847656 89.304688 25.078125 92.242188 25.242188 L 92.242188 30.484375 C 87.523438 30.1875 82.804688 29.886719 77.988281 29.789062 L 77.988281 0 L 83.265625 0 Z M 96.695312 30.851562 C 98.375 30.949219 100.15625 31.050781 101.875 31.25 L 101.875 0 L 96.695312 0 Z M 125 0 L 118.304688 16.15625 L 125 33.96875 C 123.019531 33.703125 121.039062 33.339844 119.0625 33.007812 L 115.269531 23.1875 L 111.410156 32.210938 C 109.496094 31.878906 107.648438 31.777344 105.734375 31.511719 L 112.53125 15.957031 L 106.394531 0 L 112.066406 0 L 115.53125 8.921875 L 119.226562 0 Z M 125 0 "/>
</g>
</svg>
